<svg xmlns="http://www.w3.org/2000/svg" version="1.1" xmlns:xlink="http://www.w3.org/1999/xlink" xmlns:svgjs="http://svgjs.dev/svgjs" width="1500" height="140" viewBox="0 0 1500 140"><g transform="matrix(1,0,0,1,-0.9090909090909918,0.08168764593787614)"><svg viewBox="0 0 396 37" data-background-color="#ffffff" preserveAspectRatio="xMidYMid meet" height="140" width="1500" xmlns="http://www.w3.org/2000/svg" xmlns:xlink="http://www.w3.org/1999/xlink"><g id="tight-bounds" transform="matrix(1,0,0,1,0.2400000000000091,-0.021588877855009514)"><svg viewBox="0 0 395.52 37.043177755710026" height="37.043177755710026" width="395.52"><g><svg viewBox="0 0 395.52 37.043177755710026" height="37.043177755710026" width="395.52"><g><svg viewBox="0 0 395.52 37.043177755710026" height="37.043177755710026" width="395.52"><g id="textblocktransform"><svg viewBox="0 0 395.52 37.043177755710026" height="37.043177755710026" width="395.52" id="textblock"><g><svg viewBox="0 0 395.52 37.043177755710026" height="37.043177755710026" width="395.52"><g transform="matrix(1,0,0,1,0,0)"><svg width="395.52" viewBox="0.15 -35.89 393.33000000000004 36.84" height="37.043177755710026" data-palette-color="#5ab2ff"><path d="M6.25-9.4L7.96-26.66Q8.23-29.32 9.4-31.1 10.57-32.89 12.3-33.95 14.04-35.01 16.16-35.45 18.29-35.89 20.46-35.89L20.46-35.89Q22.24-35.89 23.95-35.74 25.66-35.6 27.1-35.4 28.54-35.21 29.59-35.01 30.64-34.81 31.13-34.72L31.13-34.72Q31.42-34.64 31.42-34.45L31.42-34.45Q31.42-34.4 31.37-34.16L31.37-34.16 31.01-32.4Q30.96-32.23 30.87-32.19 30.79-32.15 30.71-32.15L30.71-32.15Q29.64-32.15 28.86-31.79 28.08-31.42 27.56-30.76 27.05-30.1 26.78-29.2 26.51-28.3 26.42-27.25L26.42-27.25 24.95-9.5Q24.76-7.35 23.85-5.44 22.95-3.54 21.34-2.12 19.73-0.71 17.38 0.12 15.04 0.95 12.01 0.95L12.01 0.95Q9.99 0.95 8.11 0.76 6.23 0.56 4.69 0.29 3.15 0.02 2.04-0.23 0.93-0.49 0.44-0.61L0.44-0.61Q0.15-0.68 0.15-0.88L0.15-0.88Q0.15-0.9 0.2-1.15L0.2-1.15 0.61-3Q0.66-3.17 0.74-3.21 0.83-3.25 0.9-3.25L0.9-3.25Q1.98-3.25 2.89-3.56 3.81-3.88 4.49-4.61 5.18-5.35 5.63-6.52 6.08-7.69 6.25-9.4L6.25-9.4ZM15.5-1.37L15.5-1.37Q17.36-1.81 18.71-2.67 20.07-3.54 20.96-4.66 21.85-5.79 22.33-7.04 22.8-8.3 22.9-9.5L22.9-9.5 24.37-27.25Q24.44-28.22 24.67-29.1 24.9-29.98 25.31-30.69 25.71-31.4 26.33-31.9 26.95-32.4 27.81-32.59L27.81-32.59Q26.07-32.52 25.04-32.01 24-31.49 23.44-30.73 22.88-29.96 22.67-29.03 22.46-28.1 22.39-27.25L22.39-27.25 20.9-9.5Q20.8-8.37 20.4-7.21 20-6.05 19.3-4.99 18.6-3.93 17.65-2.99 16.7-2.05 15.5-1.37ZM39.72-3.39L39.72-31.49Q38.13-31.15 36.79-30.88L36.79-30.88Q36.2-30.76 35.63-30.66 35.06-30.57 34.54-30.48 34.03-30.4 33.63-30.35 33.23-30.3 33.03-30.3L33.03-30.3Q32.61-30.3 32.33-30.46 32.05-30.62 32.05-31.1L32.05-31.1 32.05-33.84Q32.05-34.3 32.44-34.68 32.83-35.06 33.66-35.06L33.66-35.06 63.96-35.06Q64.79-35.06 65.18-34.68 65.57-34.3 65.57-33.84L65.57-33.84 65.57-31.1Q65.57-30.62 65.29-30.46 65.01-30.3 64.6-30.3L64.6-30.3Q64.38-30.3 63.99-30.35 63.6-30.4 63.08-30.48 62.57-30.57 62-30.66 61.42-30.76 60.84-30.88L60.84-30.88Q59.49-31.15 57.91-31.49L57.91-31.49 57.91-3.34Q57.91-2.51 57.76-1.89 57.61-1.27 57.21-0.84 56.81-0.42 56.1-0.21 55.39 0 54.29 0L54.29 0 43.41 0Q42.26 0 41.54-0.22 40.82-0.44 40.41-0.85 40.01-1.27 39.87-1.9 39.72-2.54 39.72-3.39L39.72-3.39ZM55.83-3.61L55.83-32.01 53.93-32.42 53.93-2.05Q54.51-2.05 54.88-2.09 55.25-2.12 55.47-2.28 55.69-2.44 55.76-2.75 55.83-3.05 55.83-3.61L55.83-3.61ZM95.41-33.91L95.41-12.62Q95.41-9.84 94.87-7.75 94.33-5.66 93.38-4.15 92.43-2.64 91.13-1.66 89.84-0.68 88.31-0.1 86.79 0.49 85.09 0.72 83.39 0.95 81.66 0.95L81.66 0.95Q80 0.95 78.35 0.74 76.7 0.54 75.23 0 73.75-0.54 72.48-1.49 71.21-2.44 70.28-3.96 69.36-5.47 68.83-7.59 68.31-9.72 68.31-12.62L68.31-12.62 68.31-31.64Q68.31-32.5 68.45-33.13 68.6-33.76 69.01-34.19 69.43-34.62 70.16-34.84 70.89-35.06 72.07-35.06L72.07-35.06 82.95-35.06Q84.37-35.06 85.11-34.64 85.86-34.23 86.16-33.61 86.47-32.98 86.49-32.29 86.52-31.59 86.52-31.01L86.52-31.01 86.52-3.64Q88.72-4.08 89.69-5.66 90.67-7.25 90.67-10.38L90.67-10.38 90.67-33.91Q90.67-34.33 90.85-34.69 91.04-35.06 91.67-35.06L91.67-35.06 94.21-35.06Q94.43-35.06 94.65-35.03 94.87-35.01 95.04-34.9 95.21-34.79 95.31-34.56 95.41-34.33 95.41-33.91L95.41-33.91ZM84.44-3.37L84.44-31.45Q84.44-31.98 84.37-32.3 84.3-32.62 84.08-32.78 83.86-32.93 83.49-32.97 83.12-33.01 82.54-33.01L82.54-33.01 82.54-3.37 84.44-3.37ZM99.89-3.39L99.89-31.64Q99.89-32.5 100.04-33.13 100.19-33.76 100.6-34.19 101.02-34.62 101.75-34.84 102.48-35.06 103.65-35.06L103.65-35.06 115.4-35.06Q117.23-35.06 119.04-34.8 120.84-34.55 122.48-33.89 124.11-33.23 125.52-32.07 126.92-30.91 127.95-29.08 128.97-27.25 129.56-24.68 130.14-22.12 130.14-18.65L130.14-18.65Q130.14-14.58 129.52-11.61 128.9-8.64 127.84-6.57 126.77-4.49 125.32-3.21 123.87-1.93 122.2-1.21 120.52-0.49 118.73-0.24 116.94 0 115.15 0L115.15 0 103.65 0Q102.48 0 101.75-0.22 101.02-0.44 100.6-0.85 100.19-1.27 100.04-1.9 99.89-2.54 99.89-3.39L99.89-3.39ZM126.7-18.14L126.7-18.14Q126.7-21.17 126.21-23.66 125.72-26.15 124.68-27.91 123.63-29.66 122-30.64 120.38-31.62 118.11-31.64L118.11-31.64 118.11-3.39Q120.38-3.42 122.01-4.58 123.65-5.74 124.69-7.74 125.72-9.74 126.21-12.41 126.7-15.09 126.7-18.14ZM116.03-3.37L116.03-31.69 114.13-31.69 114.13-3.37 116.03-3.37ZM137.12-3.39L137.12-18.55 130.92-32.2Q130.78-32.54 130.73-32.81 130.68-33.08 130.68-33.35L130.68-33.35Q130.68-34.2 131.22-34.63 131.75-35.06 132.34-35.06L132.34-35.06 145.67-35.06Q146.28-35.06 146.72-34.9 147.16-34.74 147.45-34.52 147.74-34.3 147.9-34.05 148.06-33.79 148.13-33.59L148.13-33.59 152.43-21.8 156.34-33.06Q156.48-33.47 156.62-33.84 156.75-34.2 156.94-34.47 157.12-34.74 157.39-34.9 157.66-35.06 158.1-35.06L158.1-35.06 160.34-35.06Q160.68-35.06 160.93-34.91 161.17-34.77 161.17-34.42L161.17-34.42Q161.17-33.96 160.88-33.2L160.88-33.2 155.34-19.09 155.34-3.42Q155.34-2.56 155.17-1.93 154.99-1.29 154.59-0.87 154.19-0.44 153.52-0.22 152.85 0 151.82 0L151.82 0 140.3 0Q139.35 0 138.74-0.22 138.12-0.44 137.77-0.85 137.42-1.27 137.27-1.9 137.12-2.54 137.12-3.39L137.12-3.39ZM151.36-13.48L151.36-2.05Q151.94-2.05 152.31-2.09 152.68-2.12 152.9-2.28 153.12-2.44 153.19-2.75 153.26-3.05 153.26-3.61L153.26-3.61 153.26-13.67 146.45-32.25Q146.3-32.67 146.05-32.84 145.79-33.01 145.38-33.01L145.38-33.01 144.2-33.01 151.36-13.48ZM177.91-3.39L177.91-31.64Q177.91-32.5 178.06-33.13 178.21-33.76 178.62-34.19 179.04-34.62 179.77-34.84 180.5-35.06 181.67-35.06L181.67-35.06 192.56-35.06Q195.22-35.06 197.69-34.42 200.16-33.79 202.06-32.37 203.96-30.96 205.11-28.7 206.26-26.44 206.26-23.19L206.26-23.19Q206.26-18.65 204.81-15.82 203.35-12.99 200.77-11.82L200.77-11.82Q202.57-11.23 203.48-9.97 204.38-8.72 204.38-6.96L204.38-6.96Q204.38-4.69 203.34-3.32 202.3-1.95 200.64-1.21 198.98-0.46 196.92-0.23 194.86 0 192.81 0L192.81 0 181.67 0Q180.5 0 179.77-0.22 179.04-0.44 178.62-0.85 178.21-1.27 178.06-1.9 177.91-2.54 177.91-3.39L177.91-3.39ZM202.82-22.8L202.82-22.8Q202.82-24.56 202.43-26.04 202.04-27.51 201.23-28.64 200.42-29.76 199.15-30.49 197.89-31.23 196.13-31.49L196.13-31.49 196.13-13.33Q197.89-13.57 199.15-14.42 200.42-15.26 201.23-16.53 202.04-17.8 202.43-19.41 202.82-21.02 202.82-22.8ZM196.13-10.13L196.13-3.39Q198.67-3.49 199.79-4.42 200.91-5.35 200.91-6.64L200.91-6.64Q200.91-7.25 200.66-7.86 200.4-8.47 199.83-8.95 199.25-9.42 198.34-9.74 197.42-10.06 196.13-10.13L196.13-10.13ZM194.05-3.27L194.05-31.86Q193.69-31.91 193.22-31.93 192.76-31.96 192.15-31.96L192.15-31.96 192.15-3.22Q192.76-3.22 193.3-3.23 193.83-3.25 194.05-3.27L194.05-3.27ZM237.12-33.91L237.12-12.62Q237.12-9.84 236.58-7.75 236.04-5.66 235.09-4.15 234.14-2.64 232.84-1.66 231.55-0.68 230.02-0.1 228.5 0.49 226.8 0.72 225.1 0.95 223.37 0.95L223.37 0.95Q221.71 0.95 220.06 0.74 218.42 0.54 216.94 0 215.46-0.54 214.19-1.49 212.92-2.44 211.99-3.96 211.07-5.47 210.54-7.59 210.02-9.72 210.02-12.62L210.02-12.62 210.02-31.64Q210.02-32.5 210.16-33.13 210.31-33.76 210.72-34.19 211.14-34.62 211.87-34.84 212.6-35.06 213.78-35.06L213.78-35.06 224.67-35.06Q226.08-35.06 226.83-34.64 227.57-34.23 227.88-33.61 228.18-32.98 228.21-32.29 228.23-31.59 228.23-31.01L228.23-31.01 228.23-3.64Q230.43-4.08 231.4-5.66 232.38-7.25 232.38-10.38L232.38-10.38 232.38-33.91Q232.38-34.33 232.56-34.69 232.75-35.06 233.38-35.06L233.38-35.06 235.92-35.06Q236.14-35.06 236.36-35.03 236.58-35.01 236.75-34.9 236.92-34.79 237.02-34.56 237.12-34.33 237.12-33.91L237.12-33.91ZM226.15-3.37L226.15-31.45Q226.15-31.98 226.08-32.3 226.01-32.62 225.79-32.78 225.57-32.93 225.2-32.97 224.84-33.01 224.25-33.01L224.25-33.01 224.25-3.37 226.15-3.37ZM241.61-3.39L241.61-31.64Q241.61-32.5 241.75-33.13 241.9-33.76 242.31-34.19 242.73-34.62 243.46-34.84 244.19-35.06 245.37-35.06L245.37-35.06 257.11-35.06Q258.94-35.06 260.75-34.8 262.55-34.55 264.19-33.89 265.82-33.23 267.23-32.07 268.63-30.91 269.66-29.08 270.68-27.25 271.27-24.68 271.86-22.12 271.86-18.65L271.86-18.65Q271.86-14.58 271.23-11.61 270.61-8.64 269.55-6.57 268.49-4.49 267.03-3.21 265.58-1.93 263.91-1.21 262.24-0.49 260.44-0.24 258.65 0 256.86 0L256.86 0 245.37 0Q244.19 0 243.46-0.22 242.73-0.44 242.31-0.85 241.9-1.27 241.75-1.9 241.61-2.54 241.61-3.39L241.61-3.39ZM268.41-18.14L268.41-18.14Q268.41-21.17 267.92-23.66 267.44-26.15 266.39-27.91 265.34-29.66 263.71-30.64 262.09-31.62 259.82-31.64L259.82-31.64 259.82-3.39Q262.09-3.42 263.73-4.58 265.36-5.74 266.4-7.74 267.44-9.74 267.92-12.41 268.41-15.09 268.41-18.14ZM257.74-3.37L257.74-31.69 255.84-31.69 255.84-3.37 257.74-3.37ZM275.61-3.39L275.61-31.64Q275.61-32.5 275.76-33.13 275.91-33.76 276.32-34.19 276.74-34.62 277.47-34.84 278.2-35.06 279.37-35.06L279.37-35.06 291.12-35.06Q292.95-35.06 294.75-34.8 296.56-34.55 298.2-33.89 299.83-33.23 301.23-32.07 302.64-30.91 303.66-29.08 304.69-27.25 305.28-24.68 305.86-22.12 305.86-18.65L305.86-18.65Q305.86-14.58 305.24-11.61 304.62-8.64 303.55-6.57 302.49-4.49 301.04-3.21 299.59-1.93 297.91-1.21 296.24-0.49 294.45-0.24 292.65 0 290.87 0L290.87 0 279.37 0Q278.2 0 277.47-0.22 276.74-0.44 276.32-0.85 275.91-1.27 275.76-1.9 275.61-2.54 275.61-3.39L275.61-3.39ZM302.42-18.14L302.42-18.14Q302.42-21.17 301.93-23.66 301.44-26.15 300.39-27.91 299.34-29.66 297.72-30.64 296.1-31.62 293.83-31.64L293.83-31.64 293.83-3.39Q296.1-3.42 297.73-4.58 299.37-5.74 300.4-7.74 301.44-9.74 301.93-12.41 302.42-15.09 302.42-18.14ZM291.75-3.37L291.75-31.69 289.85-31.69 289.85-3.37 291.75-3.37ZM309.62-3.39L309.62-31.64Q309.62-32.5 309.77-33.13 309.91-33.76 310.33-34.19 310.74-34.62 311.47-34.84 312.21-35.06 313.38-35.06L313.38-35.06 324.27-35.06Q325.68-35.06 326.43-34.64 327.17-34.23 327.48-33.61 327.78-32.98 327.81-32.29 327.83-31.59 327.83-31.01L327.83-31.01 327.83-3.96Q327.83-3.39 327.73-2.71 327.64-2.03 327.25-1.43 326.85-0.83 326.05-0.42 325.24 0 323.83 0L323.83 0 313.38 0Q312.21 0 311.47-0.22 310.74-0.44 310.33-0.85 309.91-1.27 309.77-1.9 309.62-2.54 309.62-3.39L309.62-3.39ZM325.76-3.61L325.76-31.45Q325.76-31.98 325.68-32.3 325.61-32.62 325.39-32.78 325.17-32.93 324.8-32.97 324.44-33.01 323.85-33.01L323.85-33.01 323.85-2.05Q324.44-2.05 324.8-2.09 325.17-2.12 325.39-2.28 325.61-2.44 325.68-2.75 325.76-3.05 325.76-3.61L325.76-3.61ZM359.64-22.8L350.56-22.8 350.56-3Q352.93-3.34 354.9-3.61L354.9-3.61Q355.73-3.74 356.58-3.85 357.42-3.96 358.13-4.05 358.83-4.15 359.35-4.2 359.86-4.25 360.06-4.25L360.06-4.25Q360.47-4.25 360.76-4.09 361.06-3.93 361.06-3.44L361.06-3.44 361.06-1.2Q361.06-0.76 360.84-0.38 360.62 0 359.79 0L359.79 0 336.06 0Q334.91 0 334.19-0.22 333.47-0.44 333.05-0.85 332.64-1.27 332.49-1.9 332.35-2.54 332.35-3.39L332.35-3.39 332.35-30.81Q332.35-32.2 332.66-33.04 332.98-33.89 333.57-34.34 334.15-34.79 334.97-34.92 335.79-35.06 336.79-35.06L336.79-35.06 358.86-35.06Q359.69-35.06 359.92-34.68 360.15-34.3 360.15-33.84L360.15-33.84 360.15-32.1Q360.15-31.62 359.9-31.46 359.64-31.3 359.23-31.3L359.23-31.3Q358.98-31.3 358.48-31.35 357.98-31.4 357.32-31.48 356.66-31.57 355.91-31.67 355.15-31.76 354.39-31.88L354.39-31.88Q352.63-32.15 350.56-32.5L350.56-32.5 350.56-26.29 359.64-26.29Q360.15-26.29 360.15-25.78L360.15-25.78 360.15-23.34Q360.15-22.8 359.64-22.8L359.64-22.8ZM348.48-2.71L348.48-32.84 346.58-33.11 346.58-2.47 348.48-2.71ZM368.3-9.4L370.01-26.66Q370.28-29.32 371.45-31.1 372.63-32.89 374.36-33.95 376.09-35.01 378.22-35.45 380.34-35.89 382.51-35.89L382.51-35.89Q384.3-35.89 386.01-35.74 387.71-35.6 389.15-35.4 390.6-35.21 391.64-35.01 392.69-34.81 393.18-34.72L393.18-34.72Q393.48-34.64 393.48-34.45L393.48-34.45Q393.48-34.4 393.43-34.16L393.43-34.16 393.06-32.4Q393.01-32.23 392.93-32.19 392.84-32.15 392.77-32.15L392.77-32.15Q391.69-32.15 390.91-31.79 390.13-31.42 389.62-30.76 389.11-30.1 388.84-29.2 388.57-28.3 388.47-27.25L388.47-27.25 387.01-9.5Q386.81-7.35 385.91-5.44 385-3.54 383.39-2.12 381.78-0.71 379.44 0.12 377.09 0.95 374.07 0.95L374.07 0.95Q372.04 0.95 370.16 0.76 368.28 0.56 366.74 0.29 365.2 0.02 364.09-0.23 362.98-0.49 362.49-0.61L362.49-0.61Q362.2-0.68 362.2-0.88L362.2-0.88Q362.2-0.9 362.25-1.15L362.25-1.15 362.67-3Q362.71-3.17 362.8-3.21 362.89-3.25 362.96-3.25L362.96-3.25Q364.03-3.25 364.95-3.56 365.86-3.88 366.55-4.61 367.23-5.35 367.68-6.52 368.13-7.69 368.3-9.4L368.3-9.4ZM377.56-1.37L377.56-1.37Q379.41-1.81 380.77-2.67 382.12-3.54 383.01-4.66 383.91-5.79 384.38-7.04 384.86-8.3 384.96-9.5L384.96-9.5 386.42-27.25Q386.49-28.22 386.73-29.1 386.96-29.98 387.36-30.69 387.76-31.4 388.39-31.9 389.01-32.4 389.86-32.59L389.86-32.59Q388.13-32.52 387.09-32.01 386.05-31.49 385.49-30.73 384.93-29.96 384.72-29.03 384.52-28.1 384.44-27.25L384.44-27.25 382.95-9.5Q382.86-8.37 382.45-7.21 382.05-6.05 381.35-4.99 380.66-3.93 379.71-2.99 378.75-2.05 377.56-1.37Z" opacity="1" transform="matrix(1,0,0,1,0,0)" fill="#5ab2ff" class="wordmark-text-0" data-fill-palette-color="primary" id="text-0"></path></svg></g></svg></g></svg></g></svg></g><g></g></svg></g><defs></defs></svg><rect width="395.52" height="37.043177755710026" fill="none" stroke="none" visibility="hidden"></rect></g></svg></g></svg>